HIERARCHY
ROOT Hips
{
	OFFSET 0.000000 0.000000 0.000000
	CHANNELS 6 Xposition Yposition Zposition Zrotation Yrotation Xrotation 
	JOINT LHipJoint
	{
		OFFSET 0.000000 0.000000 0.000000
		CHANNELS 3 Zrotation Yrotation Xrotation
		JOINT LeftUpLeg
		{
			OFFSET 1.363060 -1.794630 0.839290
			CHANNELS 3 Zrotation Yrotation Xrotation
			JOINT LeftLeg
			{
				OFFSET 2.448110 -6.726130 0.000000
				CHANNELS 3 Zrotation Yrotation Xrotation
				JOINT LeftFoot
				{
					OFFSET 2.562200 -7.039590 0.000000
					CHANNELS 3 Zrotation Yrotation Xrotation
					JOINT LeftToeBase
					{
						OFFSET 0.157640 -0.433110 2.322550
						CHANNELS 3 Zrotation Yrotation Xrotation
						End Site
						{
							OFFSET 0.000000 0.000000 0.000000
						}
					}
				}
			}
		}
	}
	JOINT RHipJoint
	{
		OFFSET 0.000000 0.000000 0.000000
		CHANNELS 3 Zrotation Yrotation Xrotation
		JOINT RightUpLeg
		{
			OFFSET -1.305520 -1.794630 0.839290
			CHANNELS 3 Zrotation Yrotation Xrotation
			JOINT RightLeg
			{
				OFFSET -2.542530 -6.985550 0.000000
				CHANNELS 3 Zrotation Yrotation Xrotation
				JOINT RightFoot
				{
					OFFSET -2.568260 -7.056230 0.000000
					CHANNELS 3 Zrotation Yrotation Xrotation
					JOINT RightToeBase
					{
						OFFSET -0.164730 -0.452590 2.363150
						CHANNELS 3 Zrotation Yrotation Xrotation
						End Site
						{
							OFFSET 0.000000 0.000000 0.000000
						}
					}
				}
			}
		}
	}
	JOINT LowerBack
	{
		OFFSET 0.000000 0.000000 0.000000
		CHANNELS 3 Zrotation Yrotation Xrotation
		JOINT Spine
		{
			OFFSET 0.028270 2.035590 -0.193380
			CHANNELS 3 Zrotation Yrotation Xrotation
			JOINT Spine1
			{
				OFFSET 0.056720 2.048850 -0.042750
				CHANNELS 3 Zrotation Yrotation Xrotation
				JOINT Neck
				{
					OFFSET 0.000000 0.000000 0.000000
					CHANNELS 3 Zrotation Yrotation Xrotation
					JOINT Neck1
					{
						OFFSET -0.054170 1.746240 0.172020
						CHANNELS 3 Zrotation Yrotation Xrotation
						JOINT Head
						{
							OFFSET 0.104070 1.761360 -0.123970
							CHANNELS 3 Zrotation Yrotation Xrotation
							End Site
							{
								OFFSET 0.000000 0.000000 0.000000
							}
						}
					}
				}
				JOINT LeftShoulder
				{
					OFFSET 0.000000 0.000000 0.000000
					CHANNELS 3 Zrotation Yrotation Xrotation
					JOINT LeftArm
					{
						OFFSET 3.362410 1.200890 -0.311210
						CHANNELS 3 Zrotation Yrotation Xrotation
						JOINT LeftForeArm
						{
							OFFSET 4.983000 -0.000000 -0.000000
							CHANNELS 3 Zrotation Yrotation Xrotation
							JOINT LeftHand
							{
								OFFSET 3.483560 -0.000000 -0.000000
								CHANNELS 3 Zrotation Yrotation Xrotation
								JOINT LeftFingerBase
								{
									OFFSET 0.000000 0.000000 0.000000
									CHANNELS 3 Zrotation Yrotation Xrotation
									JOINT LeftHandIndex1
									{
										OFFSET 0.715260 -0.000000 -0.000000
										CHANNELS 3 Zrotation Yrotation Xrotation
										End Site
										{
											OFFSET 0.000000 0.000000 0.000000
										}
									}
								}
								JOINT LThumb
								{
									OFFSET 0.000000 0.000000 0.000000
									CHANNELS 3 Zrotation Yrotation Xrotation
									End Site
									{
										OFFSET 0.000000 0.000000 0.000000
									}
								}
							}
						}
					}
				}
				JOINT RightShoulder
				{
					OFFSET 0.000000 0.000000 0.000000
					CHANNELS 3 Zrotation Yrotation Xrotation
					JOINT RightArm
					{
						OFFSET -3.136600 1.374050 -0.404650
						CHANNELS 3 Zrotation Yrotation Xrotation
						JOINT RightForeArm
						{
							OFFSET -5.241900 -0.000000 -0.000000
							CHANNELS 3 Zrotation Yrotation Xrotation
							JOINT RightHand
							{
								OFFSET -3.444170 -0.000000 -0.000000
								CHANNELS 3 Zrotation Yrotation Xrotation
								JOINT RightFingerBase
								{
									OFFSET 0.000000 0.000000 0.000000
									CHANNELS 3 Zrotation Yrotation Xrotation
									JOINT RightHandIndex1
									{
										OFFSET -0.622530 -0.000000 -0.000000
										CHANNELS 3 Zrotation Yrotation Xrotation
										End Site
										{
											OFFSET 0.000000 0.000000 0.000000
										}
									}
								}
								JOINT RThumb
								{
									OFFSET 0.000000 0.000000 0.000000
									CHANNELS 3 Zrotation Yrotation Xrotation
									End Site
									{
										OFFSET 0.000000 0.000000 0.000000
									}
								}
							}
						}
					}
				}
			}
		}
	}
}
MOTION
Frames: 12
Frame Time: 0.008333
15.726887 11.182963 5.369965 18.960206 -86.775529 -13.529377 4.961041 0.511997 -1.795032 -0.128729 28.606506 -72.972895 33.234631 16.261984 127.344308 -1.574204 -46.645461 -4.212617 0.208600 -2.940300 -8.112700 -3.449693 -1.090895 1.142188 -0.179356 -24.371904 -77.503772 -34.695871 -16.229846 130.799803 -8.050405 31.296500 -15.550362 -2.665900 10.133600 -29.410400 -1.348694 -0.390712 28.146968 0.962570 -0.662898 -1.392494 0.672835 -0.775604 -4.665531 -1.366361 2.397364 -12.260147 5.355699 2.731318 2.158185 0.484100 1.406400 3.718700 -4.093263 -5.814353 0.637194 -64.050125 1.396416 11.938080 19.709336 -27.299774 -8.482488 -1.990049 -3.438302 17.487961 11.410743 17.929388 4.637600 -7.125000 0.000000 0.000000 -16.653200 51.494300 -2.727200 6.102452 5.826579 0.102659 60.682200 -1.250548 0.556001 -20.277603 29.114954 -10.202689 1.982916 -3.331627 13.730423 -28.876657 26.615854 -16.590000 7.125000 0.000000 0.000000 -0.488000 3.044500 -0.513200 
15.734754 11.040925 5.373952 28.254183 -86.590632 -22.865348 5.155211 0.533081 -1.787717 -0.554207 29.737645 -73.656725 33.555612 16.083281 128.485272 -1.877409 -47.273789 -4.456635 0.186400 -2.780900 -7.669400 -3.638392 -1.416116 1.303431 -0.966063 -26.540233 -78.564409 -35.153549 -16.106478 132.139618 -7.985148 32.863726 -15.580740 -2.568400 9.961200 -28.851300 -1.826646 -0.402750 28.332763 0.951172 -0.796682 -1.401219 0.850761 -0.867121 -4.811036 -1.422173 2.501636 -12.244358 5.265808 2.878484 2.079732 0.436500 1.466800 3.683200 -4.095719 -5.867363 0.638149 -64.303940 1.454648 11.616123 19.754730 -27.323612 -8.503877 -1.984355 -3.387980 17.132672 11.646257 17.581325 4.658200 -7.125000 0.000000 0.000000 -16.215700 51.147300 -2.511800 6.104077 5.819221 0.107256 60.773374 -1.120170 0.612644 -20.237099 29.036101 -10.150814 1.971475 -3.356918 13.775189 -28.888865 26.712790 -16.656500 7.125000 0.000000 0.000000 -0.469700 3.179200 -0.495100 
15.733245 10.899964 5.374275 30.251187 -86.527936 -25.092289 5.431976 0.733069 -1.678540 -0.436976 31.375585 -74.185570 33.933495 16.004203 129.651274 -2.517006 -48.340773 -3.976525 0.123700 -2.267600 -6.245700 -3.828212 -1.642300 1.401967 -1.320640 -28.682487 -79.125496 -35.586061 -15.950320 133.398549 -7.969329 34.193766 -15.996680 -2.519100 9.872500 -28.564800 -1.884551 -0.416703 28.616665 0.972952 -0.819249 -1.393793 0.960993 -0.903452 -4.951253 -1.477197 2.559959 -12.304936 5.187826 2.970052 2.091934 0.406900 1.505900 3.733900 -4.063560 -5.890880 0.628372 -64.572138 1.596883 11.668039 19.890420 -27.443679 -8.580232 -2.050934 -3.403052 16.747653 12.151565 17.831360 4.943000 -7.125000 0.000000 0.000000 -15.768100 51.510600 -2.582300 6.093255 5.807499 0.098175 61.008944 -1.159515 0.671147 -20.291451 29.074032 -10.176056 1.934957 -3.447169 13.978374 -29.021194 27.381077 -17.102400 7.125000 0.000000 0.000000 -0.396100 4.015900 -0.422900 
15.726240 10.765255 5.377832 23.490792 -86.667165 -18.552082 5.797728 1.094962 -1.513238 0.297642 33.115630 -74.786492 34.325575 15.989289 130.903601 -3.650344 -49.786854 -2.105776 0.034200 -1.194600 -3.284300 -3.950840 -1.715729 1.449854 -1.037790 -30.651955 -79.518480 -35.996714 -15.735914 134.572826 -8.189491 34.478141 -17.325187 -2.753100 10.284200 -29.902100 -1.254296 -0.505095 28.822173 1.017417 -0.740582 -1.390082 0.848624 -0.858609 -5.139537 -1.476995 2.624494 -12.115250 5.112834 3.049341 2.046143 0.376600 1.537800 3.673200 -4.015613 -5.867318 0.617942 -64.638907 1.886508 12.426353 20.084575 -27.669425 -8.718009 -2.049010 -3.583424 16.200530 11.942511 18.777036 5.091200 -7.125000 0.000000 0.000000 -16.489400 52.547200 -3.131800 6.101560 5.786752 0.090022 61.072455 -1.387294 0.905920 -20.288494 29.104880 -10.184706 1.893271 -3.448108 13.918372 -28.660530 27.576612 -16.954700 7.125000 0.000000 0.000000 -0.123500 4.135400 -0.132100 
15.730443 10.631515 5.385268 21.587614 -86.749030 -16.580821 6.101354 1.366048 -1.382353 0.585046 34.848853 -75.798177 34.673124 15.950306 132.171757 -4.893803 -51.118497 0.276419 0.000500 -0.140900 -0.387000 -4.064901 -1.845019 1.528514 -0.781083 -32.492430 -80.557732 -36.410103 -15.507054 135.797474 -8.521534 34.135904 -18.915529 -3.162400 10.953400 -32.122700 -0.936898 -0.516039 28.792177 1.066586 -0.627898 -1.392400 0.861358 -0.813581 -5.269371 -1.540588 2.743863 -11.890556 5.019600 3.207067 1.866072 0.332600 1.598000 3.503100 -4.016702 -5.887943 0.628880 -64.755684 1.902639 12.783523 20.018345 -27.600933 -8.666505 -2.049493 -3.702618 15.905490 11.684932 19.408526 5.134700 -7.125000 0.000000 0.000000 -17.111000 53.213700 -3.539100 6.157342 5.764816 0.098930 60.739655 -1.512724 1.236333 -20.157156 29.003342 -10.092658 1.975075 -3.369974 13.515002 -28.777405 26.909785 -16.691900 7.125000 0.000000 0.000000 -0.359400 3.383000 -0.380000 
15.741004 10.495727 5.396152 25.877627 -86.748495 -20.846195 6.337942 1.538383 -1.245607 0.468601 36.821755 -76.779763 35.062122 15.886808 133.413908 -5.665166 -52.132577 1.085282 0.000300 -0.105500 -0.289800 -4.210751 -2.087015 1.636861 -0.989575 -34.477515 -81.619502 -36.846429 -15.300987 137.046133 -8.822688 34.224945 -20.385099 -3.478500 11.432100 -33.751500 -1.033142 -0.508608 28.837512 1.106708 -0.604703 -1.381201 1.013463 -0.843379 -5.342030 -1.634447 2.924299 -11.861384 4.889091 3.458796 1.734303 0.279300 1.703400 3.420800 -4.031859 -5.945249 0.646285 -65.002088 1.822625 12.419968 19.849310 -27.401906 -8.542415 -1.950743 -3.710512 15.950458 11.009679 19.168494 4.763300 -7.125000 0.000000 0.000000 -17.742000 52.831800 -3.507500 6.183768 5.739471 0.105589 60.622404 -1.498577 1.307711 -20.181874 29.019364 -10.102149 2.021156 -3.395706 13.382248 -29.164091 27.039012 -17.025400 7.125000 0.000000 0.000000 -0.578500 3.649200 -0.614200 
15.739496 10.364789 5.407576 30.027601 -86.614644 -25.082185 6.496656 1.691074 -1.105896 0.320096 38.625106 -77.378580 35.438078 15.834105 134.505269 -6.074465 -52.854420 0.968598 0.003800 -0.399900 -1.098900 -4.372631 -2.335601 1.749599 -1.590039 -36.896184 -82.303334 -37.282449 -15.128540 138.241878 -8.927307 35.820787 -21.266770 -3.434000 11.366600 -33.526300 -1.025639 -0.495377 28.885258 1.087833 -0.597465 -1.360642 0.861483 -0.865036 -5.352675 -1.398582 3.012210 -11.945894 4.701238 3.539189 1.773340 0.134100 1.732500 3.488400 -4.021089 -5.979014 0.654404 -65.038684 1.810904 12.353534 19.854012 -27.399818 -8.550981 -1.775489 -3.711109 15.925552 10.060310 18.663654 4.211500 -7.125000 0.000000 0.000000 -18.551500 52.118000 -3.345600 6.182210 5.717820 0.098107 61.065710 -1.468588 0.778514 -20.163468 28.958739 -10.064076 2.040987 -3.490360 14.078913 -29.924015 27.254180 -17.673900 7.125000 0.000000 0.000000 -1.005200 4.152100 -1.075500 
15.736801 10.231157 5.422986 36.762947 -86.223935 -31.923529 6.560370 1.804082 -0.960440 -0.039053 40.337736 -77.818577 35.830412 15.746913 135.602304 -6.361647 -53.646442 0.098080 0.010900 -0.675000 -1.855000 -4.566746 -2.636463 1.896690 -2.647614 -40.003640 -82.998405 -37.744637 -14.979221 139.500019 -8.867790 38.294153 -21.826975 -3.210000 11.027500 -32.372800 -1.215326 -0.461411 28.972332 1.038459 -0.654853 -1.369785 0.642666 -0.908764 -5.457630 -1.045692 3.012587 -12.090603 4.497555 3.487212 1.944406 -0.057400 1.703300 3.678200 -4.013277 -6.017457 0.646267 -65.047366 1.883082 12.301807 19.915104 -27.445612 -8.581121 -1.816207 -3.642595 15.876578 10.508153 18.388984 4.353700 -7.125000 0.000000 0.000000 -17.901500 51.887600 -3.118800 6.199335 5.713356 0.080529 61.515572 -1.390679 0.238361 -19.987533 28.729346 -9.915205 1.979238 -3.500287 14.749539 -29.692266 26.959190 -17.368100 7.125000 0.000000 0.000000 -0.919500 3.768100 -0.978100 
15.743914 10.100004 5.444863 36.342017 -86.202507 -31.686422 6.753310 2.055336 -0.728181 0.361600 42.419620 -78.372707 36.298169 15.679851 136.901902 -6.932721 -54.798080 -0.369846 0.017000 -0.842000 -2.314100 -4.639332 -2.806739 1.956592 -3.215266 -42.256293 -83.503215 -38.069635 -14.827272 140.610003 -8.689756 39.895420 -21.739495 -2.964100 10.636700 -31.064000 -0.770611 -0.522511 29.244863 1.010999 -0.625121 -1.387763 0.243169 -0.892910 -5.698467 -0.669239 2.987329 -12.145843 4.312179 3.389444 1.990333 -0.230400 1.648500 3.776000 -4.010921 -6.047637 0.650136 -64.908894 1.898297 12.454962 19.868783 -27.372937 -8.532060 -1.877843 -3.605171 15.641812 10.983760 18.296966 4.552500 -7.125000 0.000000 0.000000 -17.305900 51.869100 -3.001600 6.209514 5.727722 0.052895 61.909942 -1.530437 -0.035244 -19.974947 28.709933 -9.920544 1.779145 -3.421195 14.758201 -27.919399 26.975193 -16.162800 7.125000 0.000000 0.000000 0.223000 3.266400 0.235400 
15.746177 9.978334 5.464369 29.355428 -86.461227 -24.920643 7.039780 2.377641 -0.501263 1.371760 44.449835 -78.801885 36.735961 15.649170 138.138332 -7.749391 -56.082230 -0.176257 0.024700 -1.015400 -2.791200 -4.589818 -2.849515 1.959751 -3.423487 -44.041350 -83.656890 -38.335610 -14.672821 141.575944 -8.548981 41.003125 -21.700044 -2.792000 10.350500 -30.119500 0.111959 -0.685509 29.407666 1.015821 -0.563213 -1.343802 -0.163093 -0.858569 -5.670395 -0.441378 3.016645 -12.216110 4.207552 3.388829 1.927374 -0.309400 1.640200 3.764700 -4.017920 -6.048913 0.676910 -64.728475 1.699039 12.704804 19.750260 -27.226222 -8.436333 -1.886170 -3.621354 15.235649 11.040178 18.314497 4.592500 -7.125000 0.000000 0.000000 -17.233900 51.910300 -3.006300 6.205728 5.745495 0.047237 62.140124 -1.667323 0.083799 -20.077210 28.834801 -10.004400 1.725454 -3.410026 14.503256 -27.416002 27.288789 -15.972600 7.125000 0.000000 0.000000 0.613600 3.474900 0.649700 
15.741866 9.850413 5.473961 33.739257 -86.210083 -29.467130 7.074132 2.532345 -0.320112 1.721551 46.427141 -78.919126 37.115393 15.652701 139.195690 -8.900651 -57.516830 0.624543 0.020100 -0.916000 -2.517800 -4.703330 -3.070686 2.071135 -4.208178 -47.155273 -83.879132 -38.804632 -14.454848 142.658019 -9.209394 41.161741 -24.324016 -3.194900 11.004100 -32.293800 -0.172267 -0.715639 29.424373 1.041946 -0.683757 -1.303219 0.038630 -0.960652 -5.633228 -0.658600 3.146599 -12.094264 4.255016 3.595657 1.874403 -0.227100 1.740900 3.682300 -4.025794 -6.056740 0.689870 -64.930314 1.781134 12.525759 19.759097 -27.239053 -8.438614 -1.929760 -3.619578 15.101496 11.350782 18.409888 4.755900 -7.125000 0.000000 0.000000 -16.931200 52.068800 -3.017800 6.185881 5.690091 0.047159 62.100989 -1.767371 0.660963 -20.145748 28.922569 -10.033523 1.842193 -3.449992 14.420577 -28.435348 27.359795 -16.697200 7.125000 0.000000 0.000000 -0.024900 3.837700 -0.026500 
15.741759 9.725295 5.473206 46.119830 -85.707681 -41.832397 6.880992 2.662572 -0.078881 1.470513 48.559431 -79.232057 37.441956 15.722848 140.187668 -10.381179 -58.780337 2.823280 0.000800 -0.177800 -0.488600 -4.942260 -3.320928 2.145964 -5.142133 -49.977376 -84.715393 -39.216606 -14.163561 143.763898 -9.890366 41.051767 -26.812188 -3.598800 11.606500 -34.353700 -1.287975 -0.418010 29.399449 1.047903 -0.684714 -1.316685 0.440488 -1.020133 -5.813523 -0.744432 3.223427 -11.857461 4.284631 3.700095 1.805464 -0.218100 1.789300 3.586100 -4.024214 -6.099990 0.691218 -65.123724 1.987650 12.493176 19.814585 -27.316499 -8.484741 -1.948743 -3.664878 15.109505 11.377863 18.742129 4.845700 -7.125000 0.000000 0.000000 -17.078900 52.440800 -3.203800 6.199267 5.607499 0.033521 62.099990 -1.914773 0.868819 -20.024416 28.803663 -9.918160 1.957866 -3.543100 14.820297 -29.717093 27.392455 -17.615900 7.125000 0.000000 0.000000 -0.834300 4.279500 -0.894300 
